<?xml version="1.0" standalone="no"?>
<!DOCTYPE svg PUBLIC "-//W3C//DTD SVG 20010904//EN"
 "http://www.w3.org/TR/2001/REC-SVG-20010904/DTD/svg10.dtd">
<svg version="1.0" xmlns="http://www.w3.org/2000/svg"
 width="360.000000pt" height="360.000000pt" viewBox="0 0 360.000000 360.000000"
 preserveAspectRatio="xMidYMid meet">
<metadata>
Created by potrace 1.11, written by Peter Selinger 2001-2013
</metadata>
<g transform="translate(0.000000,360.000000) scale(0.100000,-0.100000)"
fill="#000000" stroke="none">
<path d="M1724 3580 c-44 -22 -75 -58 -90 -105 -6 -19 -10 -454 -9 -1175 1
-1083 0 -1146 -17 -1171 -54 -80 -180 -88 -245 -17 l-23 24 -2 976 -3 976 -31
39 c-85 106 -238 95 -294 -23 -22 -45 -23 -55 -22 -363 l0 -316 -26 -27 c-51
-55 -138 -64 -202 -22 -39 26 -47 39 -74 116 -17 47 -59 88 -105 103 -79 25
-175 -15 -210 -88 -20 -42 -21 -57 -21 -471 0 -399 1 -429 19 -464 23 -45 46
-67 92 -86 95 -40 213 22 234 124 4 19 7 116 7 215 0 99 4 191 9 205 13 35 67
69 120 76 35 5 55 1 87 -15 74 -38 70 13 70 -777 0 -705 0 -711 21 -752 44
-87 148 -119 237 -74 62 32 87 78 92 176 5 97 11 110 62 136 71 36 146 23 200
-35 l25 -26 0 -297 c1 -342 3 -352 84 -403 82 -53 184 -30 238 53 l28 42 0
1137 c1 1114 1 1138 20 1159 65 71 175 70 243 -3 l23 -24 2 -910 2 -909 25
-37 c35 -51 109 -88 164 -81 56 8 95 32 130 82 l30 42 1 369 c0 354 1 370 20
391 58 65 173 63 236 -3 24 -24 29 -39 29 -78 0 -61 13 -96 53 -137 58 -60
161 -67 226 -14 72 58 69 39 70 519 2 479 2 474 -62 530 -64 56 -160 56 -224
0 -57 -50 -63 -75 -63 -269 l0 -173 -26 -29 c-66 -71 -178 -73 -240 -4 -18 19
-19 56 -20 701 l0 682 -23 38 c-60 97 -199 117 -274 39 -45 -47 -55 -86 -56
-221 l0 -124 -32 -33 c-18 -18 -44 -37 -58 -42 -64 -23 -171 13 -188 63 -3 11
-7 169 -8 350 0 271 -3 334 -15 355 -53 90 -149 123 -236 80z"/>
</g>
</svg>
